<?xml version="1.0" encoding="UTF-8" standalone="no"?>
<!-- Generator: Adobe Illustrator 16.0.0, SVG Export Plug-In . SVG Version: 6.00 Build 0)  -->

<svg
   xmlns:dc="http://purl.org/dc/elements/1.1/"
   xmlns:cc="http://creativecommons.org/ns#"
   xmlns:rdf="http://www.w3.org/1999/02/22-rdf-syntax-ns#"
   xmlns:svg="http://www.w3.org/2000/svg"
   xmlns="http://www.w3.org/2000/svg"
   xmlns:sodipodi="http://sodipodi.sourceforge.net/DTD/sodipodi-0.dtd"
   xmlns:inkscape="http://www.inkscape.org/namespaces/inkscape"
   version="1.1"
   id="Capa_1"
   x="0px"
   y="0px"
   width="612.01px"
   height="612.01px"
   viewBox="0 0 612.01 612.01"
   style="enable-background:new 0 0 612.01 612.01;"
   xml:space="preserve"
   sodipodi:docname="search-interface-symbol.svg"
   inkscape:version="0.92.5 (2060ec1f9f, 2020-04-08)"><metadata
   id="metadata44"><rdf:RDF><cc:Work
       rdf:about=""><dc:format>image/svg+xml</dc:format><dc:type
         rdf:resource="http://purl.org/dc/dcmitype/StillImage" /></cc:Work></rdf:RDF></metadata><defs
   id="defs42" /><sodipodi:namedview
   pagecolor="#ffffff"
   bordercolor="#666666"
   borderopacity="1"
   objecttolerance="10"
   gridtolerance="10"
   guidetolerance="10"
   inkscape:pageopacity="0"
   inkscape:pageshadow="2"
   inkscape:window-width="1366"
   inkscape:window-height="704"
   id="namedview40"
   showgrid="false"
   inkscape:zoom="0.38561461"
   inkscape:cx="306.005"
   inkscape:cy="306.005"
   inkscape:window-x="0"
   inkscape:window-y="339"
   inkscape:window-maximized="1"
   inkscape:current-layer="g4" />
<g
   id="g7">
	<g
   id="_x34__4_">
		<g
   id="g4">
			<path
   d="M606.209,578.714L448.198,423.228C489.576,378.272,515,318.817,515,253.393C514.98,113.439,399.704,0,257.493,0     C115.282,0,0.006,113.439,0.006,253.393s115.276,253.393,257.487,253.393c61.445,0,117.801-21.253,162.068-56.586     l158.624,156.099c7.729,7.614,20.277,7.614,28.006,0C613.938,598.686,613.938,586.328,606.209,578.714z M257.493,467.8     c-120.326,0-217.869-95.993-217.869-214.407S137.167,38.986,257.493,38.986c120.327,0,217.869,95.993,217.869,214.407     S377.82,467.8,257.493,467.8z"
   id="path2"
   style="fill:#333333;fill-opacity:1" />
		</g>
	</g>
</g>
<g
   id="g9">
</g>
<g
   id="g11">
</g>
<g
   id="g13">
</g>
<g
   id="g15">
</g>
<g
   id="g17">
</g>
<g
   id="g19">
</g>
<g
   id="g21">
</g>
<g
   id="g23">
</g>
<g
   id="g25">
</g>
<g
   id="g27">
</g>
<g
   id="g29">
</g>
<g
   id="g31">
</g>
<g
   id="g33">
</g>
<g
   id="g35">
</g>
<g
   id="g37">
</g>
</svg>